<?xml version="1.0" encoding="utf-8"?>
<!-- Generator: Adobe Illustrator 19.1.0, SVG Export Plug-In . SVG Version: 6.00 Build 0)  -->
<svg version="1.1" id="Layer_1" xmlns="http://www.w3.org/2000/svg" xmlns:xlink="http://www.w3.org/1999/xlink" x="0px" y="0px"
	 viewBox="-456.2 124.9 213.6 25" style="enable-background:new -456.2 124.9 213.6 25;" xml:space="preserve">
<style type="text/css">
	.st0{fill:#213F50;}
</style>
<g>
	<path class="st0" d="M-452.3,146.6h2.7v-17h-2.7v-1.7h9.2c1.4,0,2.6,0.2,3.5,0.7c1.5,0.7,2.5,2.4,2.5,4.5c0,2.1-1,3.6-2.6,4.4v0
		c2.1,0.6,3.4,2.6,3.4,5c0,2.5-1.5,4.6-3.5,5.3c-0.9,0.3-1.9,0.4-3,0.4h-9.5V146.6z M-442.6,136.8c2,0,3.5-1.4,3.5-3.6
		c0-1.3-0.6-2.4-1.5-3c-0.6-0.4-1.5-0.5-2.4-0.5h-4.5v7.1H-442.6z M-442.7,146.6c0.6,0,1.5,0,2.1-0.3c1.4-0.6,2.2-2,2.2-3.7
		c0-2.5-1.7-4-4-4h-5.2v8.1H-442.7z"/>
	<path class="st0" d="M-428.1,133.3c4,0,6.1,3.1,6.1,6.7c0,0.3-0.1,0.9-0.1,0.9h-11.2c0.1,3.8,2.7,5.9,5.7,5.9
		c2.7,0,4.5-1.8,4.5-1.8l0.9,1.5c0,0-2.1,2-5.4,2c-4.4,0-7.6-3.1-7.6-7.6C-435.3,136.2-432.1,133.3-428.1,133.3z M-424,139.6
		c-0.1-3.1-2-4.6-4.1-4.6c-2.4,0-4.6,1.6-5,4.6H-424z"/>
	<path class="st0" d="M-421.5,146.7h2.3V136c0-0.4-0.2-0.6-0.6-0.6h-2v-1.6h2.8c1.2,0,1.8,0.5,1.8,1.7v1c0,0.6,0,1.1,0,1.1h0
		c0.7-2.2,2.4-3.9,4.6-3.9c0.4,0,0.8,0.1,0.8,0.1v1.9c0,0-0.4,0-0.8,0c-3.3,0-4.6,3.7-4.6,6.6v4.6h2.3v1.6h-6.5V146.7z"/>
	<path class="st0" d="M-410.7,146.7h2.5V136c0-0.4-0.2-0.6-0.6-0.6h-2v-1.6h2.8c1.2,0,1.8,0.5,1.8,1.6v0.9c0,0.6-0.1,1-0.1,1h0
		c0.4-1.1,2.3-3.8,5.9-3.8c3.6,0,4.8,2,4.8,5.7v7.7h2.5v1.6h-4.5v-8.8c0-2.3-0.4-4.3-3.2-4.3c-3.2,0-5.6,2.8-5.6,6.1v5.4h2.5v1.6
		h-6.9V146.7z"/>
	<path class="st0" d="M-394,143.8h1.8v1c0,1.5,2.1,2.1,3.8,2.1c1.9,0,3.4-0.8,3.4-2.3c0-1.7-1.9-2.3-3.9-3c-2.2-0.8-4.5-1.8-4.5-4.4
		c0-2.7,2.6-3.9,5-3.9c2,0,4.8,0.9,4.8,2.8v1.7h-1.8v-1.1c0-1.1-1.5-1.8-3-1.8c-1.6,0-3.1,0.7-3.1,2.1c0,1.6,1.8,2.3,3.7,2.9
		c2.3,0.8,4.7,1.8,4.7,4.4c0,2.5-2.3,4.1-5.5,4.1c-2.7,0-5.5-1.2-5.5-3.5V143.8L-394,143.8z"/>
	<path class="st0" d="M-382.5,146.7h2.5v-17.2h-2.6v-1.6h4.6v11.5h2.3l3.5-4.1h-2.1v-1.6h6.3v1.6h-2l-4,4.7v0c0,0,0.4,0.2,1,1.1
		l2.9,4.9c0.3,0.5,0.5,0.6,1.3,0.6h1v1.6h-1.6c-1.5,0-1.9-0.3-2.5-1.5l-3.1-5.3c-0.3-0.5-0.7-0.6-1.4-0.6h-1.5v5.7h2.3v1.6h-6.8
		V146.7L-382.5,146.7z"/>
	<path class="st0" d="M-368.7,146.7h2.5v-11.3h-2.6v-1.6h4.6v13h2.5v1.6h-6.9V146.7L-368.7,146.7z M-366.3,127.9h2.2v2.5h-2.2V127.9
		z"/>
	<path class="st0" d="M-353.8,133.3c4.3,0,7.7,3.3,7.7,7.6c0,4.4-3.5,7.7-7.7,7.7c-4.2,0-7.7-3.3-7.7-7.7
		C-361.5,136.6-358,133.3-353.8,133.3z M-353.8,146.9c3.1,0,5.7-2.6,5.7-5.9c0-3.3-2.6-5.8-5.7-5.8c-3.1,0-5.7,2.5-5.7,5.8
		C-359.5,144.3-356.9,146.9-353.8,146.9z"/>
	<path class="st0" d="M-344.5,129.5h-2.6v-1.6h4.6v16.6c0,1.2,0.3,2.2,1.7,2.2c0.5,0,0.8,0,0.8,0v1.7c0,0-0.6,0.1-1.1,0.1
		c-1.9,0-3.3-0.9-3.3-3.8V129.5L-344.5,129.5z"/>
	<path class="st0" d="M-333.5,133.3c3.5,0,4.7,2.8,4.7,2.8h0c0,0-0.1-0.5-0.1-1.1v-5.6h-2.6v-1.6h4.6V146c0,0.4,0.2,0.6,0.6,0.6h1.6
		v1.6h-2.4c-1.2,0-1.8-0.6-1.8-1.6v-0.3c0-0.6,0.1-0.9,0.1-0.9h0c0,0-1.2,3.1-5.1,3.1c-3.9,0-6.3-3.1-6.3-7.6
		C-340.1,136.4-337.4,133.3-333.5,133.3z M-333.5,146.9c2.4,0,4.7-1.8,4.7-5.9c0-3-1.5-5.9-4.6-5.9c-2.6,0-4.7,2.1-4.7,5.9
		C-338.1,144.6-336.2,146.9-333.5,146.9z"/>
	<path class="st0" d="M-317.6,146.6h2.7l1.4-17h-2.7v-1.7h4.9l5.9,13.3c0.3,0.7,0.4,1.2,0.4,1.2h0c0,0,0.1-0.5,0.4-1.2l5.9-13.3h4.9
		v1.7h-2.7l1.3,17h2.7v1.7h-7.3v-1.6h2.6l-1.1-14.1c0-0.5,0-1.5,0-1.5h0c0,0-0.2,0.9-0.4,1.4l-5.4,12h-1.9l-5.5-12
		c-0.2-0.5-0.4-1.4-0.4-1.4h-0.1c0,0,0.1,0.9,0,1.5l-1.1,14.1h2.6v1.7h-7.3L-317.6,146.6L-317.6,146.6z"/>
	<path class="st0" d="M-286.6,133.3c4,0,6.1,3.1,6.1,6.7c0,0.3-0.1,0.9-0.1,0.9h-11.2c0.1,3.8,2.7,5.9,5.7,5.9
		c2.7,0,4.5-1.8,4.5-1.8l0.9,1.5c0,0-2.1,2-5.4,2c-4.4,0-7.6-3.1-7.6-7.6C-293.8,136.2-290.5,133.3-286.6,133.3z M-282.5,139.6
		c-0.1-3.1-2-4.6-4.1-4.6c-2.4,0-4.6,1.6-5,4.6H-282.5z"/>
	<path class="st0" d="M-273.5,133.3c3.5,0,4.7,2.8,4.7,2.8h0c0,0-0.1-0.5-0.1-1.1v-5.6h-2.6v-1.6h4.6V146c0,0.4,0.2,0.6,0.6,0.6h1.6
		v1.6h-2.4c-1.2,0-1.8-0.6-1.8-1.6v-0.3c0-0.6,0.1-0.9,0.1-0.9h0c0,0-1.2,3.1-5.1,3.1c-3.9,0-6.3-3.1-6.3-7.6
		S-277.4,133.3-273.5,133.3z M-273.4,146.9c2.4,0,4.7-1.8,4.7-5.9c0-3-1.5-5.9-4.6-5.9c-2.6,0-4.7,2.1-4.7,5.9
		C-278,144.6-276.1,146.9-273.4,146.9z"/>
	<path class="st0" d="M-265.1,146.7h2.5v-11.3h-2.6v-1.6h4.6v13h2.5v1.6h-6.9L-265.1,146.7L-265.1,146.7z M-262.7,127.9h2.2v2.5
		h-2.2V127.9z"/>
	<path class="st0" d="M-249.1,139.4h0.9v-0.6c0-2.8-1.5-3.7-3.5-3.7c-2.5,0-4.2,1.4-4.2,1.4l-0.9-1.5c0,0,2-1.7,5.3-1.7
		c3.6,0,5.4,1.9,5.4,5.5v7.2c0,0.4,0.2,0.6,0.6,0.6h1.6v1.6h-2.4c-1.2,0-1.8-0.6-1.8-1.6v-0.3c0-0.7,0.1-1.1,0.1-1.1h0
		c0,0-1.2,3.3-5,3.3c-2.4,0-4.9-1.4-4.9-4.4C-257.9,139.6-251.6,139.4-249.1,139.4z M-252.7,147c2.9,0,4.6-2.9,4.6-5.5v-0.7h-0.9
		c-1.2,0-6.9-0.1-6.9,3.3C-255.8,145.6-254.8,147-252.7,147z"/>
</g>
</svg>
